<mxfile host="app.diagrams.net" agent="Mozilla/5.0 (Windows NT 10.0; Win64; x64) AppleWebKit/537.36 (KHTML, like Gecko) Chrome/133.0.0.0 Safari/537.36" version="24.8.4" pages="2">
  <diagram name="Context Diagram" id="i1NHL7GJSS7ajKzj1QSG">
    <mxGraphModel dx="244" dy="574" grid="1" gridSize="10" guides="1" tooltips="1" connect="1" arrows="1" fold="1" page="1" pageScale="1" pageWidth="827" pageHeight="1169" math="0" shadow="0">
      <root>
        <mxCell id="0" />
        <mxCell id="1" parent="0" />
        <mxCell id="eZignlBFpvyMjM7GuEPs-8" value="expense information" style="edgeStyle=orthogonalEdgeStyle;rounded=0;orthogonalLoop=1;jettySize=auto;html=1;exitX=0.5;exitY=0;exitDx=0;exitDy=0;" edge="1" parent="1" source="eZignlBFpvyMjM7GuEPs-1" target="eZignlBFpvyMjM7GuEPs-6">
          <mxGeometry x="0.3496" relative="1" as="geometry">
            <Array as="points">
              <mxPoint x="334" y="170" />
            </Array>
            <mxPoint as="offset" />
          </mxGeometry>
        </mxCell>
        <mxCell id="eZignlBFpvyMjM7GuEPs-11" value="financial insight" style="edgeStyle=orthogonalEdgeStyle;rounded=0;orthogonalLoop=1;jettySize=auto;html=1;exitX=0.75;exitY=0;exitDx=0;exitDy=0;" edge="1" parent="1" source="eZignlBFpvyMjM7GuEPs-1" target="eZignlBFpvyMjM7GuEPs-6">
          <mxGeometry x="0.0323" relative="1" as="geometry">
            <Array as="points">
              <mxPoint x="374" y="190" />
            </Array>
            <mxPoint as="offset" />
          </mxGeometry>
        </mxCell>
        <mxCell id="eZignlBFpvyMjM7GuEPs-1" value="0" style="swimlane;fontStyle=0;childLayout=stackLayout;horizontal=1;startSize=26;horizontalStack=0;resizeParent=1;resizeParentMax=0;resizeLast=0;collapsible=1;marginBottom=0;align=center;fontSize=14;" vertex="1" parent="1">
          <mxGeometry x="254" y="240" width="160" height="80" as="geometry" />
        </mxCell>
        <mxCell id="eZignlBFpvyMjM7GuEPs-2" value="Spensa" style="text;strokeColor=none;fillColor=none;spacingLeft=4;spacingRight=4;overflow=hidden;rotatable=0;points=[[0,0.5],[1,0.5]];portConstraint=eastwest;fontSize=12;whiteSpace=wrap;html=1;align=center;" vertex="1" parent="eZignlBFpvyMjM7GuEPs-1">
          <mxGeometry y="26" width="160" height="54" as="geometry" />
        </mxCell>
        <mxCell id="eZignlBFpvyMjM7GuEPs-7" value="store expenses" style="edgeStyle=orthogonalEdgeStyle;rounded=0;orthogonalLoop=1;jettySize=auto;html=1;exitX=0.25;exitY=1;exitDx=0;exitDy=0;" edge="1" parent="1" source="eZignlBFpvyMjM7GuEPs-6" target="eZignlBFpvyMjM7GuEPs-1">
          <mxGeometry x="0.197" relative="1" as="geometry">
            <Array as="points">
              <mxPoint x="535" y="260" />
            </Array>
            <mxPoint as="offset" />
          </mxGeometry>
        </mxCell>
        <mxCell id="eZignlBFpvyMjM7GuEPs-9" value="add wishlist" style="edgeStyle=orthogonalEdgeStyle;rounded=0;orthogonalLoop=1;jettySize=auto;html=1;exitX=0.5;exitY=1;exitDx=0;exitDy=0;" edge="1" parent="1" source="eZignlBFpvyMjM7GuEPs-6" target="eZignlBFpvyMjM7GuEPs-2">
          <mxGeometry x="0.2803" relative="1" as="geometry">
            <Array as="points">
              <mxPoint x="560" y="290" />
            </Array>
            <mxPoint as="offset" />
          </mxGeometry>
        </mxCell>
        <mxCell id="eZignlBFpvyMjM7GuEPs-6" value="User" style="rounded=1;arcSize=10;whiteSpace=wrap;html=1;align=center;" vertex="1" parent="1">
          <mxGeometry x="510" y="160" width="100" height="40" as="geometry" />
        </mxCell>
        <mxCell id="eZignlBFpvyMjM7GuEPs-10" style="edgeStyle=orthogonalEdgeStyle;rounded=0;orthogonalLoop=1;jettySize=auto;html=1;exitX=0.75;exitY=1;exitDx=0;exitDy=0;" edge="1" parent="1" source="eZignlBFpvyMjM7GuEPs-6" target="eZignlBFpvyMjM7GuEPs-2">
          <mxGeometry relative="1" as="geometry">
            <Array as="points">
              <mxPoint x="585" y="310" />
            </Array>
          </mxGeometry>
        </mxCell>
        <mxCell id="eZignlBFpvyMjM7GuEPs-15" value="generate financial insight" style="edgeStyle=orthogonalEdgeStyle;rounded=0;orthogonalLoop=1;jettySize=auto;html=1;exitX=0.5;exitY=0;exitDx=0;exitDy=0;" edge="1" parent="1" source="eZignlBFpvyMjM7GuEPs-12" target="eZignlBFpvyMjM7GuEPs-1">
          <mxGeometry relative="1" as="geometry">
            <Array as="points">
              <mxPoint x="90" y="253" />
            </Array>
          </mxGeometry>
        </mxCell>
        <mxCell id="eZignlBFpvyMjM7GuEPs-12" value="AI" style="rounded=1;arcSize=10;whiteSpace=wrap;html=1;align=center;" vertex="1" parent="1">
          <mxGeometry x="40" y="273" width="100" height="40" as="geometry" />
        </mxCell>
        <mxCell id="eZignlBFpvyMjM7GuEPs-13" value="expense info" style="edgeStyle=orthogonalEdgeStyle;rounded=0;orthogonalLoop=1;jettySize=auto;html=1;exitX=0;exitY=0.5;exitDx=0;exitDy=0;entryX=1;entryY=0.5;entryDx=0;entryDy=0;" edge="1" parent="1" source="eZignlBFpvyMjM7GuEPs-2" target="eZignlBFpvyMjM7GuEPs-12">
          <mxGeometry relative="1" as="geometry" />
        </mxCell>
      </root>
    </mxGraphModel>
  </diagram>
  <diagram id="p5GedsiTWtsr-qRVWarj" name="Use Case Diagram">
    <mxGraphModel dx="433" dy="1020" grid="1" gridSize="10" guides="1" tooltips="1" connect="1" arrows="1" fold="1" page="1" pageScale="1" pageWidth="827" pageHeight="1169" math="0" shadow="0">
      <root>
        <mxCell id="0" />
        <mxCell id="1" parent="0" />
        <mxCell id="6RDA2OgEClwJ4WPIp2Ii-2" value="" style="rounded=0;whiteSpace=wrap;html=1;" vertex="1" parent="1">
          <mxGeometry x="240" y="40" width="280" height="640" as="geometry" />
        </mxCell>
        <mxCell id="6RDA2OgEClwJ4WPIp2Ii-3" value="AI" style="shape=umlActor;verticalLabelPosition=bottom;verticalAlign=top;html=1;outlineConnect=0;" vertex="1" parent="1">
          <mxGeometry x="100" y="220" width="30" height="60" as="geometry" />
        </mxCell>
        <mxCell id="6RDA2OgEClwJ4WPIp2Ii-4" value="Registered User" style="shape=umlActor;verticalLabelPosition=bottom;verticalAlign=top;html=1;outlineConnect=0;" vertex="1" parent="1">
          <mxGeometry x="630" y="220" width="30" height="60" as="geometry" />
        </mxCell>
        <mxCell id="6RDA2OgEClwJ4WPIp2Ii-5" value="Spensa" style="text;html=1;align=center;verticalAlign=middle;whiteSpace=wrap;rounded=0;" vertex="1" parent="1">
          <mxGeometry x="350" y="40" width="60" height="30" as="geometry" />
        </mxCell>
        <mxCell id="6RDA2OgEClwJ4WPIp2Ii-6" value="Track Expenses" style="ellipse;whiteSpace=wrap;html=1;" vertex="1" parent="1">
          <mxGeometry x="320" y="70" width="120" height="50" as="geometry" />
        </mxCell>
        <mxCell id="6RDA2OgEClwJ4WPIp2Ii-21" style="rounded=0;orthogonalLoop=1;jettySize=auto;html=1;exitX=0;exitY=0.5;exitDx=0;exitDy=0;endArrow=none;endFill=0;" edge="1" parent="1" source="6RDA2OgEClwJ4WPIp2Ii-7" target="6RDA2OgEClwJ4WPIp2Ii-3">
          <mxGeometry relative="1" as="geometry" />
        </mxCell>
        <mxCell id="6RDA2OgEClwJ4WPIp2Ii-24" style="rounded=0;orthogonalLoop=1;jettySize=auto;html=1;exitX=1;exitY=0.5;exitDx=0;exitDy=0;endArrow=none;endFill=0;" edge="1" parent="1" source="6RDA2OgEClwJ4WPIp2Ii-7" target="6RDA2OgEClwJ4WPIp2Ii-4">
          <mxGeometry relative="1" as="geometry" />
        </mxCell>
        <mxCell id="6RDA2OgEClwJ4WPIp2Ii-7" value="Scan Receipt" style="ellipse;whiteSpace=wrap;html=1;" vertex="1" parent="1">
          <mxGeometry x="320" y="130" width="120" height="50" as="geometry" />
        </mxCell>
        <mxCell id="6RDA2OgEClwJ4WPIp2Ii-25" style="rounded=0;orthogonalLoop=1;jettySize=auto;html=1;exitX=1;exitY=0.5;exitDx=0;exitDy=0;endArrow=none;endFill=0;" edge="1" parent="1" source="6RDA2OgEClwJ4WPIp2Ii-8" target="6RDA2OgEClwJ4WPIp2Ii-4">
          <mxGeometry relative="1" as="geometry" />
        </mxCell>
        <mxCell id="6RDA2OgEClwJ4WPIp2Ii-8" value="Set and Track Budget" style="ellipse;whiteSpace=wrap;html=1;" vertex="1" parent="1">
          <mxGeometry x="320" y="190" width="120" height="50" as="geometry" />
        </mxCell>
        <mxCell id="6RDA2OgEClwJ4WPIp2Ii-26" style="rounded=0;orthogonalLoop=1;jettySize=auto;html=1;exitX=1;exitY=0.5;exitDx=0;exitDy=0;endArrow=none;endFill=0;" edge="1" parent="1" source="6RDA2OgEClwJ4WPIp2Ii-9" target="6RDA2OgEClwJ4WPIp2Ii-4">
          <mxGeometry relative="1" as="geometry" />
        </mxCell>
        <mxCell id="6RDA2OgEClwJ4WPIp2Ii-9" value="Manage Savings" style="ellipse;whiteSpace=wrap;html=1;" vertex="1" parent="1">
          <mxGeometry x="320" y="250" width="120" height="50" as="geometry" />
        </mxCell>
        <mxCell id="6RDA2OgEClwJ4WPIp2Ii-20" style="rounded=0;orthogonalLoop=1;jettySize=auto;html=1;exitX=0;exitY=0.5;exitDx=0;exitDy=0;endArrow=none;endFill=0;" edge="1" parent="1" source="6RDA2OgEClwJ4WPIp2Ii-11" target="6RDA2OgEClwJ4WPIp2Ii-3">
          <mxGeometry relative="1" as="geometry" />
        </mxCell>
        <mxCell id="6RDA2OgEClwJ4WPIp2Ii-27" style="rounded=0;orthogonalLoop=1;jettySize=auto;html=1;exitX=1;exitY=0.5;exitDx=0;exitDy=0;endArrow=none;endFill=0;" edge="1" parent="1" source="6RDA2OgEClwJ4WPIp2Ii-11" target="6RDA2OgEClwJ4WPIp2Ii-4">
          <mxGeometry relative="1" as="geometry" />
        </mxCell>
        <mxCell id="6RDA2OgEClwJ4WPIp2Ii-11" value="Plan Investments" style="ellipse;whiteSpace=wrap;html=1;" vertex="1" parent="1">
          <mxGeometry x="320" y="310" width="120" height="50" as="geometry" />
        </mxCell>
        <mxCell id="6RDA2OgEClwJ4WPIp2Ii-28" style="rounded=0;orthogonalLoop=1;jettySize=auto;html=1;exitX=1;exitY=0.5;exitDx=0;exitDy=0;endArrow=none;endFill=0;" edge="1" parent="1" source="6RDA2OgEClwJ4WPIp2Ii-12" target="6RDA2OgEClwJ4WPIp2Ii-4">
          <mxGeometry relative="1" as="geometry" />
        </mxCell>
        <mxCell id="6RDA2OgEClwJ4WPIp2Ii-12" value="Track Tax Relief" style="ellipse;whiteSpace=wrap;html=1;" vertex="1" parent="1">
          <mxGeometry x="320" y="370" width="120" height="50" as="geometry" />
        </mxCell>
        <mxCell id="6RDA2OgEClwJ4WPIp2Ii-29" style="rounded=0;orthogonalLoop=1;jettySize=auto;html=1;exitX=1;exitY=0.5;exitDx=0;exitDy=0;endArrow=none;endFill=0;" edge="1" parent="1" source="6RDA2OgEClwJ4WPIp2Ii-13" target="6RDA2OgEClwJ4WPIp2Ii-4">
          <mxGeometry relative="1" as="geometry" />
        </mxCell>
        <mxCell id="6RDA2OgEClwJ4WPIp2Ii-13" value="Manage Banks Accounts" style="ellipse;whiteSpace=wrap;html=1;" vertex="1" parent="1">
          <mxGeometry x="320" y="430" width="120" height="50" as="geometry" />
        </mxCell>
        <mxCell id="6RDA2OgEClwJ4WPIp2Ii-19" style="rounded=0;orthogonalLoop=1;jettySize=auto;html=1;exitX=0;exitY=0.5;exitDx=0;exitDy=0;endArrow=none;endFill=0;" edge="1" parent="1" source="6RDA2OgEClwJ4WPIp2Ii-14" target="6RDA2OgEClwJ4WPIp2Ii-3">
          <mxGeometry relative="1" as="geometry" />
        </mxCell>
        <mxCell id="6RDA2OgEClwJ4WPIp2Ii-30" style="rounded=0;orthogonalLoop=1;jettySize=auto;html=1;exitX=1;exitY=0.5;exitDx=0;exitDy=0;endArrow=none;endFill=0;" edge="1" parent="1" source="6RDA2OgEClwJ4WPIp2Ii-14" target="6RDA2OgEClwJ4WPIp2Ii-4">
          <mxGeometry relative="1" as="geometry" />
        </mxCell>
        <mxCell id="6RDA2OgEClwJ4WPIp2Ii-14" value="Plan Wishlist Purchases" style="ellipse;whiteSpace=wrap;html=1;" vertex="1" parent="1">
          <mxGeometry x="320" y="490" width="120" height="50" as="geometry" />
        </mxCell>
        <mxCell id="6RDA2OgEClwJ4WPIp2Ii-18" style="rounded=0;orthogonalLoop=1;jettySize=auto;html=1;exitX=0;exitY=0.5;exitDx=0;exitDy=0;endArrow=none;endFill=0;" edge="1" parent="1" source="6RDA2OgEClwJ4WPIp2Ii-15" target="6RDA2OgEClwJ4WPIp2Ii-3">
          <mxGeometry relative="1" as="geometry" />
        </mxCell>
        <mxCell id="6RDA2OgEClwJ4WPIp2Ii-31" style="rounded=0;orthogonalLoop=1;jettySize=auto;html=1;exitX=1;exitY=0.5;exitDx=0;exitDy=0;endArrow=none;endFill=0;" edge="1" parent="1" source="6RDA2OgEClwJ4WPIp2Ii-15" target="6RDA2OgEClwJ4WPIp2Ii-4">
          <mxGeometry relative="1" as="geometry" />
        </mxCell>
        <mxCell id="6RDA2OgEClwJ4WPIp2Ii-15" value="Plan Loan Repayments" style="ellipse;whiteSpace=wrap;html=1;" vertex="1" parent="1">
          <mxGeometry x="320" y="550" width="120" height="50" as="geometry" />
        </mxCell>
        <mxCell id="6RDA2OgEClwJ4WPIp2Ii-16" value="Export Financial Reports" style="ellipse;whiteSpace=wrap;html=1;" vertex="1" parent="1">
          <mxGeometry x="320" y="610" width="120" height="50" as="geometry" />
        </mxCell>
        <mxCell id="6RDA2OgEClwJ4WPIp2Ii-17" style="rounded=0;orthogonalLoop=1;jettySize=auto;html=1;exitX=0;exitY=0.5;exitDx=0;exitDy=0;endArrow=none;endFill=0;" edge="1" parent="1" source="6RDA2OgEClwJ4WPIp2Ii-16" target="6RDA2OgEClwJ4WPIp2Ii-3">
          <mxGeometry relative="1" as="geometry" />
        </mxCell>
        <mxCell id="6RDA2OgEClwJ4WPIp2Ii-22" style="rounded=0;orthogonalLoop=1;jettySize=auto;html=1;exitX=1;exitY=0.5;exitDx=0;exitDy=0;endArrow=none;endFill=0;" edge="1" parent="1" source="6RDA2OgEClwJ4WPIp2Ii-6" target="6RDA2OgEClwJ4WPIp2Ii-4">
          <mxGeometry relative="1" as="geometry" />
        </mxCell>
      </root>
    </mxGraphModel>
  </diagram>
</mxfile>
